<!-- Generated by IcoMoon.io -->
<svg version="1.1" xmlns="http://www.w3.org/2000/svg" width="32" height="32" viewBox="0 0 32 32">
<title>email</title>
<path d="M26.667 5.333h-21.333c-1.466 0.006-2.653 1.196-2.653 2.663 0 0.001 0 0.003 0 0.004v-0l-0.013 16c0 1.467 1.2 2.667 2.667 2.667h21.333c1.467 0 2.667-1.2 2.667-2.667v-16c0-1.467-1.2-2.667-2.667-2.667zM26.133 11l-9.427 5.893c-0.201 0.126-0.445 0.2-0.707 0.2s-0.506-0.075-0.712-0.204l0.006 0.003-9.427-5.893c-0.322-0.203-0.532-0.557-0.532-0.96 0-0.625 0.507-1.132 1.132-1.132 0.222 0 0.43 0.064 0.605 0.175l-0.005-0.003 8.933 5.587 8.933-5.587c0.17-0.108 0.378-0.172 0.6-0.172 0.625 0 1.132 0.507 1.132 1.132 0 0.403-0.21 0.757-0.527 0.957l-0.005 0.003z"></path>
</svg>
