<!-- Generated by IcoMoon.io -->
<svg version="1.1" xmlns="http://www.w3.org/2000/svg" width="32" height="32" viewBox="0 0 32 32">
<title>phone</title>
<path d="M24.882 19.773l-3.268-0.373c-0.090-0.011-0.193-0.017-0.299-0.017-0.707 0-1.348 0.287-1.811 0.75l-2.367 2.367c-3.669-1.893-6.585-4.809-8.427-8.37l-0.051-0.108 2.38-2.38c0.464-0.463 0.75-1.104 0.75-1.811 0-0.105-0.006-0.209-0.019-0.311l0.001 0.012-0.373-3.242c-0.154-1.288-1.241-2.277-2.558-2.277-0.001 0-0.002 0-0.002 0h-2.226c-1.454 0-2.663 1.209-2.573 2.663 0.682 10.987 9.469 19.761 20.443 20.443 1.454 0.090 2.663-1.119 2.663-2.573v-2.226c0-0.004 0-0.009 0-0.014 0-1.307-0.984-2.385-2.252-2.532l-0.012-0.001z"></path>
</svg>
